<svg xmlns="http://www.w3.org/2000/svg" width="131" height="131" viewBox="0 0 131 131"><g transform="translate(-536 -933)"><circle cx="65.5" cy="65.5" r="65.5" transform="translate(536 933)" fill="#f2f3f5"/><g transform="translate(562 958.811)"><g transform="translate(57.204 57.102)"><path d="M373.763,360.831a1.076,1.076,0,0,0-1.173.233l-11.758,11.758a1.076,1.076,0,0,0,.761,1.837h11.758a1.076,1.076,0,0,0,1.076-1.076V361.825A1.076,1.076,0,0,0,373.763,360.831Zm-9.573,11.676,8.085-8.085v8.085Z" transform="translate(-360.517 -360.749)" fill="#4958a8"/></g><g transform="translate(0 0)"><path d="M78.177,37.808a1.158,1.158,0,0,0-1.262.251l-3.468,3.468V17.947a1.158,1.158,0,0,0-1.158-1.158h-8.9l3.23-3.23v0l3.112-3.112a3.531,3.531,0,0,0,0-4.993l-3.6-3.6a3.531,3.531,0,0,0-4.993,0L58.03,4.967,54.268,8.73l-8.059,8.059H10.265V5.333A1.158,1.158,0,0,0,9.107,4.175,9.118,9.118,0,0,0,0,13.283V62.465a1.161,1.161,0,0,0,.027.249,8.771,8.771,0,0,0,8.744,8.1H44.156l-6.664,6.664a1.158,1.158,0,0,0,.819,1.977H77.734A1.158,1.158,0,0,0,78.892,78.3V38.878A1.158,1.158,0,0,0,78.177,37.808ZM62.781,3.492a1.216,1.216,0,0,1,1.718,0l3.6,3.6a1.216,1.216,0,0,1,0,1.718L65.8,11.1,60.486,5.786ZM58.849,7.424l5.317,5.317-2.125,2.125L56.724,9.549ZM76.576,51.889H74.44a1.158,1.158,0,1,0,0,2.316h2.136v3.489H74.44a1.158,1.158,0,0,0,0,2.316h2.136V63.5H74.44a1.158,1.158,0,1,0,0,2.316h2.136V69.3H74.44a1.158,1.158,0,0,0,0,2.316h2.136v5.523H41.106l11.7-11.7a1.158,1.158,0,0,0-1.638-1.638L46.472,68.5H8.772a6.419,6.419,0,0,1-6.45-6.247q.01-.33.051-.654v0q.019-.154.046-.306l.006-.035q.024-.136.054-.27l.017-.075q.026-.114.057-.226c.011-.041.023-.081.035-.121.017-.059.035-.118.053-.176s.039-.116.059-.173c.014-.04.028-.08.043-.12.028-.076.058-.151.089-.225l.027-.065c.04-.092.081-.184.124-.274l.005-.012a6.817,6.817,0,0,1,4.738-3.705l.018,0c.1-.02.193-.036.29-.052l.049-.008c.088-.013.177-.024.266-.034l.075-.009c.086-.009.172-.014.259-.02l.082-.006q.17-.009.343-.009a1.158,1.158,0,0,0,1.158-1.158v-8.4a1.158,1.158,0,0,0-2.316,0V53.43a9.044,9.044,0,0,0-5.2,2.517c-.151.147-.293.3-.432.455V13.283A6.8,6.8,0,0,1,7.949,6.59v34.9h0a1.158,1.158,0,1,0,2.316,0h0V19.1H43.893l-6.4,6.4a1.158,1.158,0,0,0,1.637,1.638l8.378-8.378h0l7.579-7.579L60.4,16.5l-.624.624h0L36.429,40.477,31.113,35.16l4.6-4.6a1.158,1.158,0,1,0-1.637-1.638l-5.421,5.421a1.163,1.163,0,0,0-.082.091c-.008.01-.016.022-.024.033s-.032.044-.047.066l-.024.041c-.013.022-.025.043-.036.066s-.014.029-.021.044-.02.046-.029.069-.007.016-.01.024l-2.256,6.391-1.538,4.357a1.171,1.171,0,0,0-.046.176H20.692a1.158,1.158,0,0,0,0,2.316H52.76a1.158,1.158,0,0,0,0-2.316H29.753l7.062-2.493.017-.007c.027-.01.054-.022.081-.034l.032-.015c.028-.014.055-.029.082-.045l.026-.015c.028-.018.055-.037.082-.058l.02-.015a1.162,1.162,0,0,0,.094-.084L61.076,19.1H71.131V43.843L54.568,60.407a1.158,1.158,0,0,0,0,1.638,1.183,1.183,0,0,0,.088.08,1.157,1.157,0,0,0,1.55-.08h0L76.576,41.673ZM34.311,41.634,30.995,42.8l-2.21-2.21,1.171-3.317Z" transform="translate(0 -0.82)" fill="#4958a8"/></g></g></g></svg>