<svg xmlns="http://www.w3.org/2000/svg" width="130" height="130" viewBox="0 0 130 130"><g transform="translate(-964 -943)"><circle cx="65" cy="65" r="65" transform="translate(964 943)" fill="#f2f3f5"/><g transform="translate(990.145 968.868)"><g transform="translate(0 0)"><path d="M78.011,30.8c-.01-.031-.016-.062-.029-.092a1.29,1.29,0,0,0-.221-.348L66.681,18.176A7.827,7.827,0,0,0,60.9,15.62H54.67V2.6a2.6,2.6,0,0,0-2.6-2.6H26.033a2.6,2.6,0,0,0-2.6,2.6V15.62H17.2a7.827,7.827,0,0,0-5.779,2.556L.338,30.364a1.29,1.29,0,0,0-.221.348c-.013.03-.018.061-.029.092a1.252,1.252,0,0,0-.074.366c0,.025-.014.046-.014.07V55.971a7.818,7.818,0,0,0,7.81,7.81h9.112l-4.686,6.248a2.6,2.6,0,0,0,2.083,4.165h7.563l-.1.225a2.6,2.6,0,0,0,2.37,3.68h29.8a2.6,2.6,0,0,0,2.37-3.68l-.1-.225h7.564a2.6,2.6,0,0,0,2.083-4.165l-4.686-6.248h9.112a7.818,7.818,0,0,0,7.81-7.81V31.24c0-.025-.013-.046-.014-.07A1.252,1.252,0,0,0,78.011,30.8ZM26.033,2.6H52.066V23.43H26.033ZM13.345,19.928A5.214,5.214,0,0,1,17.2,18.223H23.43V23.43h-1.3a1.3,1.3,0,0,0,0,2.6H55.971a1.3,1.3,0,1,0,0-2.6h-1.3V18.223H60.9a5.214,5.214,0,0,1,3.853,1.705l9.1,10.01H4.245Zm45.23,40.383-2.6-3.472V54.67a3.9,3.9,0,0,0-3.9-3.9H26.033a3.9,3.9,0,0,0-3.9,3.9v2.17l-2.6,3.472V50.765a9.122,9.122,0,0,1,9.112-9.112H49.463a9.122,9.122,0,0,1,9.112,9.112Zm-5.207-4.34H24.731v-1.3a1.3,1.3,0,0,1,1.3-1.3H52.066a1.3,1.3,0,0,1,1.3,1.3ZM24.15,75.5l5.325-11.715h19.15L53.955,75.5Zm30.884-3.9-4.371-9.618-.014-.031a1.269,1.269,0,0,0-.243-.35c-.027-.029-.059-.051-.087-.077a1.3,1.3,0,0,0-.282-.19,1.226,1.226,0,0,0-.118-.055,1.3,1.3,0,0,0-.454-.092H28.636a1.3,1.3,0,0,0-.453.091,1.225,1.225,0,0,0-.118.055,1.3,1.3,0,0,0-.282.19c-.029.026-.06.048-.087.077a1.269,1.269,0,0,0-.243.35l-.014.031-4.372,9.619H14.318l9.762-13.017H54.019l9.762,13.017ZM75.5,55.971a5.207,5.207,0,0,1-5.207,5.207H61.178V50.765A11.729,11.729,0,0,0,49.463,39.05H28.636A11.729,11.729,0,0,0,16.922,50.765V61.178H7.81A5.207,5.207,0,0,1,2.6,55.971V32.541H75.5Z" transform="translate(0 0)" fill="#4958a8"/><path d="M55.028,38.056A5.028,5.028,0,1,0,50,33.028,5.028,5.028,0,0,0,55.028,38.056Zm0-6.7a1.676,1.676,0,1,1-1.676,1.676A1.676,1.676,0,0,1,55.028,31.352Z" transform="translate(11.339 7.282)" fill="#4958a8"/><ellipse cx="1.627" cy="1.952" rx="1.627" ry="1.952" transform="translate(64.749 45.962)" fill="#4958a8"/><ellipse cx="1.627" cy="1.952" rx="1.627" ry="1.952" transform="translate(64.749 49.958)" fill="#4958a8"/><circle cx="1.627" cy="1.627" r="1.627" transform="translate(64.749 54.064)" fill="#4958a8"/><path d="M26.676,54.352H40.084a1.676,1.676,0,0,0,0-3.352H26.676a1.676,1.676,0,1,0,0,3.352Z" transform="translate(5.67 12.015)" fill="#4958a8"/><path d="M44.788,54H24.676a1.676,1.676,0,0,0,0,3.352H44.788a1.676,1.676,0,1,0,0-3.352Z" transform="translate(4.318 14.043)" fill="#4958a8"/><path d="M5.676,32.028a1.676,1.676,0,0,0,1.676-1.676V28.676a1.676,1.676,0,1,0-3.352,0v1.676A1.676,1.676,0,0,0,5.676,32.028Z" transform="translate(2.704 7.613)" fill="#4958a8"/><path d="M5.676,45.408a1.676,1.676,0,0,0,1.676-1.676V33.676a1.676,1.676,0,1,0-3.352,0V43.732A1.676,1.676,0,0,0,5.676,45.408Z" transform="translate(2.704 7.81)" fill="#4958a8"/></g></g></g></svg>