<svg xmlns="http://www.w3.org/2000/svg" width="140" height="140" viewBox="0 0 140 140"><g transform="translate(-1383 -933)"><circle cx="70" cy="70" r="70" transform="translate(1383 933)" fill="#f2f3f5"/><g transform="translate(1411 963.1)"><path d="M124.432,292.646a1.646,1.646,0,1,0-2.248-.6A1.646,1.646,0,0,0,124.432,292.646Zm0,0" transform="translate(-101.892 -241.921)" fill="#4958a8"/><path d="M15.8,80.76l8.288,14.355a6.582,6.582,0,1,0,11.4-6.582l-4.937-8.552,4.276-2.469a1.646,1.646,0,0,0,.6-2.248l-2.14-3.707,31.521-6.183a4.936,4.936,0,0,0,4-7.4l-5.469-9.473,3.5-5.294a1.646,1.646,0,0,0,.052-1.73l-3.291-5.7a1.649,1.649,0,0,0-1.524-.82l-6.331.38L49.668,24.824a4.894,4.894,0,0,0-4.214-2.468h-.063a4.894,4.894,0,0,0-4.157,2.276l-21.5,27.386L5.761,60.087A11.52,11.52,0,0,0,15.8,80.76Zm16.839,9.42a3.291,3.291,0,0,1-5.7,3.291L18.706,79.217l5.7-3.291ZM28.9,77.13l-1.646-2.85,2.85-1.646,1.646,2.85ZM61.253,38.307l2.274,3.939L61.5,45.318l-3.92-6.79ZM43.987,26.436a1.645,1.645,0,0,1,2.83.033L65.958,59.624a1.645,1.645,0,0,1-1.385,2.467,6.041,6.041,0,0,0-.9.153L43.424,27.174C43.848,26.627,43.9,26.574,43.987,26.436Zm-2.754,3.527,19.024,32.95L31.546,68.545l-8.73-15.12ZM4.395,74.178a8.223,8.223,0,0,1,3.012-11.24l12.827-7.406,8.228,14.252L15.635,77.19A8.238,8.238,0,0,1,4.395,74.178Zm0,0" transform="translate(0 -18.677)" fill="#4958a8"/><path d="M53.1,310.4a1.646,1.646,0,0,0-2.248-.6L48,311.439a1.648,1.648,0,0,1-2.248-.6,1.646,1.646,0,1,0-2.85,1.646,4.943,4.943,0,0,0,6.744,1.807l2.85-1.646A1.646,1.646,0,0,0,53.1,310.4Zm0,0" transform="translate(-35.658 -258.627)" fill="#4958a8"/><path d="M446.291,42.689l-9.17,5.1a1.646,1.646,0,0,0,1.6,2.876l9.17-5.1a1.646,1.646,0,0,0-1.6-2.876Zm0,0" transform="translate(-364.478 -35.49)" fill="#4958a8"/><path d="M448.494,138.381l-6.358-1.7a1.645,1.645,0,1,0-.852,3.179l6.359,1.7a1.645,1.645,0,1,0,.851-3.179Zm0,0" transform="translate(-367.643 -114.138)" fill="#4958a8"/><path d="M385.254,1.22l-1.705,6.359a1.646,1.646,0,1,0,3.18.852l1.7-6.359a1.646,1.646,0,1,0-3.179-.852Zm0,0" transform="translate(-320.382 0)" fill="#4958a8"/></g></g></svg>